<?xml version="1.0" encoding="UTF-8"?>
<svg width="40px" height="58px" viewBox="0 0 40 58" version="1.1" xmlns="http://www.w3.org/2000/svg" xmlns:xlink="http://www.w3.org/1999/xlink">
    <!-- Generator: Sketch 50.2 (55047) - http://www.bohemiancoding.com/sketch -->
    <title>Group 2</title>
    <desc>Created with Sketch.</desc>
    <defs></defs>
    <g id="Icons" stroke="none" stroke-width="1" fill="none" fill-rule="evenodd">
        <g id="Group-2">
            <g id="Logo-pin-Copy" fill="#AC252A" fill-rule="nonzero">
                <path d="M34.1450654,5.8617424 C30.3673297,2.0819256 25.3442553,0 20.0020238,0 C14.6587493,0 9.6367179,2.0819256 5.85898214,5.8617424 C-1.1322279,12.8557601 -2.00104454,26.0151996 3.97741525,33.9880876 L20.0020238,57.1428571 L36.0026434,34.0204384 C42.0050921,26.0151996 41.1362755,12.8557601 34.1450654,5.8617424 Z" id="Shape"></path>
            </g>
            <path d="M32.5330152,16.6857143 C30.3090721,16.6857143 28.5057445,17.6159699 27.8486894,19.2768025 C27.1916343,17.6159699 25.3879354,16.6857143 23.164178,16.6857143 C21.1885568,16.6857143 19.5451764,17.4200045 18.7419131,18.7482249 C17.9385569,17.4200045 16.2951765,16.6857143 14.319741,16.6857143 C11.5085514,16.6857143 9.36759885,18.171097 9.36759885,20.7419481 C9.36759885,21.3893488 9.50563798,21.9677764 9.75646631,22.471104 C9.72406842,22.4855856 9.69194903,22.5000672 9.65862284,22.5140846 C9.53079508,22.5644916 9.39099217,22.6122994 9.23782165,22.6573222 C8.84960401,22.7635204 8.41190765,22.8219109 7.97309732,22.8219109 C6.69834729,22.8219109 5.55420993,22.0197615 5.55420993,20.7859498 C5.55420993,19.4488176 6.53487257,18.6468539 7.80962261,18.6468539 C8.2953124,18.6468539 8.66960544,18.6749816 9.05290306,18.8127422 C9.05281023,18.8127422 9.49217754,17.8544518 10.2295311,17.3021096 C10.0884286,17.2357357 9.93971395,17.1706614 9.78060227,17.1055872 L9.78041661,17.1071653 C9.11519241,16.8169768 8.33866429,16.6857143 7.46642781,16.6857143 C4.65523824,16.6857143 2.51428571,18.171097 2.51428571,20.7419481 C2.51428571,23.2974822 4.65523824,24.7828649 7.46642781,24.7828649 C8.20851577,24.7828649 9.03647204,24.6756455 9.74634777,24.4755027 C10.0124003,24.4118209 10.6361292,24.1971965 11.0922061,23.9343002 C11.9485685,24.4872922 13.0672703,24.7828649 14.319741,24.7828649 C16.2951765,24.7828649 17.9385569,24.0485747 18.7419131,22.7256456 C19.5451764,24.0485747 21.1885568,24.7828649 23.164178,24.7828649 C25.1362716,24.7828649 26.7775169,24.0510811 27.5823584,22.732515 L27.5823584,26.8476034 L30.6073369,26.8476034 L30.6073369,24.5204327 C31.1945834,24.692912 31.8432837,24.7828649 32.5330152,24.7828649 C35.3443904,24.7828649 37.4857143,23.2974822 37.4857143,20.7419481 C37.4857143,18.171097 35.3443904,16.6857143 32.5330152,16.6857143 Z M14.319741,22.9113068 C12.9632071,22.9113068 12.4078016,21.8859926 12.4078016,20.7419481 C12.4078016,19.5827722 12.9632071,18.5575508 14.319741,18.5575508 C15.6765533,18.5575508 16.2320517,19.5827722 16.2320517,20.7419481 C16.2320517,21.8859926 15.6765533,22.9113068 14.319741,22.9113068 Z M23.164178,22.9113068 C21.8080155,22.9113068 21.2519601,21.8859926 21.2519601,20.7419481 C21.2519601,19.5827722 21.8080155,18.5575508 23.164178,18.5575508 C24.5209903,18.5575508 25.0763031,19.5827722 25.0763031,20.7419481 C25.0763031,21.8859926 24.5209903,22.9113068 23.164178,22.9113068 Z M32.5330152,22.9113068 C31.1768527,22.9113068 30.6207973,21.8859926 30.6207973,20.7419481 C30.6207973,19.5827722 31.1768527,18.5575508 32.5330152,18.5575508 C33.8897347,18.5575508 34.4451403,19.5827722 34.4451403,20.7419481 C34.4451403,21.8859926 33.8897347,22.9113068 32.5330152,22.9113068 Z" id="Fill-3" fill="#FFFFFF"></path>
        </g>
    </g>
</svg>