<?xml version="1.0" encoding="UTF-8"?>
<svg width="38px" height="58px" viewBox="0 0 38 58" version="1.1" xmlns="http://www.w3.org/2000/svg" xmlns:xlink="http://www.w3.org/1999/xlink">
    <!-- Generator: Sketch 50.2 (55047) - http://www.bohemiancoding.com/sketch -->
    <title>Group 3</title>
    <desc>Created with Sketch.</desc>
    <defs></defs>
    <g id="Page-1" stroke="none" stroke-width="1" fill="none" fill-rule="evenodd">
        <g id="free-map-pin-icons" transform="translate(-767.000000, -270.000000)">
            <g id="Layer_1" transform="translate(59.000000, 139.000000)">
                <g id="Group" transform="translate(342.000000, 0.000000)">
                    <g id="Group-3" transform="translate(366.000000, 131.000000)">
                        <path d="M37.3966252,18.6978143 C37.3966252,33.7698811 18.6978143,58 18.6978143,58 C18.6978143,58 0,33.7688845 0,18.6978143 C0,8.37071276 8.3717094,0 18.6978143,0 C29.0249158,0 37.3966252,8.37071276 37.3966252,18.6978143 Z" id="Shape" fill="#AC252A" fill-rule="nonzero"></path>
                        <path d="M30.4681185,17 C28.4331379,17 26.7830342,17.8512143 26.1818073,19.3709304 C25.5805804,17.8512143 23.930137,17 21.8953263,17 C20.0875683,17 18.5838215,17.6718995 17.8488093,18.8872646 C17.1137122,17.6718995 15.6099654,17 13.8023773,17 C11.230047,17 9.27100549,18.3591737 9.27100549,20.7115865 C9.27100549,21.3039793 9.3973158,21.8332595 9.62683192,22.2938207 C9.59718679,22.3070718 9.5677965,22.3203229 9.53730194,22.3331493 C9.42033537,22.3792734 9.29241113,22.423019 9.15225511,22.4642164 C8.79702328,22.5613913 8.3965168,22.6148204 7.99499101,22.6148204 C6.82855307,22.6148204 5.78163,21.8808276 5.78163,20.7518495 C5.78163,19.5283298 6.67896837,18.7945068 7.84540631,18.7945068 C8.28982834,18.7945068 8.63231871,18.8202446 8.98304855,18.9463001 C8.98296361,18.9463001 9.38499906,18.069433 10.0597017,17.5640218 C9.93058826,17.5032876 9.79450949,17.4437425 9.64891711,17.3841974 L9.64874722,17.3856414 C9.04004534,17.1201095 8.32949674,17 7.53137186,17 C4.95904152,17 3,18.3591737 3,20.7115865 C3,23.0499837 4.95904152,24.4091574 7.53137186,24.4091574 C8.21040659,24.4091574 8.96801363,24.3110482 9.61757312,24.127911 C9.8610199,24.06964 10.4317522,23.8732517 10.8490774,23.632693 C11.6326771,24.1386987 12.6563257,24.4091574 13.8023773,24.4091574 C15.6099654,24.4091574 17.1137122,23.7372579 17.8488093,22.5267345 C18.5838215,23.7372579 20.0875683,24.4091574 21.8953263,24.4091574 C23.6998564,24.4091574 25.2016495,23.7395513 25.9381057,22.5330203 L25.9381057,26.2984607 L28.7060599,26.2984607 L28.7060599,24.1690234 C29.2434096,24.3268476 29.8369916,24.4091574 30.4681185,24.4091574 C33.0406187,24.4091574 35,23.0499837 35,20.7115865 C35,18.3591737 33.0406187,17 30.4681185,17 Z M13.8023773,22.6966206 C12.5611046,22.6966206 12.0528903,21.7584246 12.0528903,20.7115865 C12.0528903,19.6509027 12.5611046,18.7127916 13.8023773,18.7127916 C15.0439049,18.7127916 15.5522041,19.6509027 15.5522041,20.7115865 C15.5522041,21.7584246 15.0439049,22.6966206 13.8023773,22.6966206 Z M21.8953263,22.6966206 C20.6543933,22.6966206 20.1455844,21.7584246 20.1455844,20.7115865 C20.1455844,19.6509027 20.6543933,18.7127916 21.8953263,18.7127916 C23.1368539,18.7127916 23.6449832,19.6509027 23.6449832,20.7115865 C23.6449832,21.7584246 23.1368539,22.6966206 21.8953263,22.6966206 Z M30.4681185,22.6966206 C29.2271855,22.6966206 28.7183766,21.7584246 28.7183766,20.7115865 C28.7183766,19.6509027 29.2271855,18.7127916 30.4681185,18.7127916 C31.7095611,18.7127916 32.2177754,19.6509027 32.2177754,20.7115865 C32.2177754,21.7584246 31.7095611,22.6966206 30.4681185,22.6966206 Z" id="Fill-3" fill="#FFFFFF"></path>
                    </g>
                </g>
            </g>
        </g>
    </g>
</svg>