<?xml version="1.0" standalone="no"?>
<!DOCTYPE svg PUBLIC "-//W3C//DTD SVG 20010904//EN"
 "http://www.w3.org/TR/2001/REC-SVG-20010904/DTD/svg10.dtd">
<svg version="1.0" xmlns="http://www.w3.org/2000/svg"
 width="1044.000000pt" height="1044.000000pt" viewBox="0 0 1044.000000 1044.000000"
 preserveAspectRatio="xMidYMid meet">
<metadata>
Created by potrace 1.11, written by Peter Selinger 2001-2013
</metadata>
<g transform="translate(0.000000,1044.000000) scale(0.100000,-0.100000)"
fill="#000000" stroke="none">
<path d="M957 7854 c-1 -1 -72 -5 -157 -8 -85 -3 -166 -8 -180 -10 -14 -3 -56
-8 -95 -11 -38 -3 -77 -8 -85 -10 -8 -2 -31 -7 -50 -9 -146 -20 -380 -94 -380
-120 0 -6 7 -33 15 -60 17 -57 44 -206 51 -286 3 -30 7 -73 9 -95 14 -147 17
-578 19 -2385 l1 -2035 22 -46 c38 -83 109 -148 193 -178 56 -21 186 -22 260
-4 58 15 142 57 194 97 18 14 17 18 -7 113 -14 54 -28 116 -31 138 -21 166
-22 177 -31 360 -6 100 -10 1399 -6 1575 1 35 1 36 44 33 23 -1 180 -4 349 -7
169 -2 311 -7 315 -9 4 -3 31 -8 58 -11 56 -6 144 -30 192 -52 17 -8 35 -14
40 -14 5 0 18 -7 28 -15 11 -8 40 -28 65 -45 25 -16 70 -53 99 -82 51 -50 121
-148 121 -168 0 -6 5 -10 10 -10 6 0 10 -5 10 -11 0 -7 18 -48 39 -93 50 -102
89 -190 108 -241 8 -22 19 -49 24 -60 32 -75 56 -144 51 -149 -3 -3 0 -6 6 -6
7 0 12 -8 12 -17 0 -10 11 -42 25 -70 13 -29 21 -53 18 -53 -3 0 -1 -6 5 -12
5 -7 31 -69 57 -138 26 -69 55 -145 65 -170 17 -42 31 -78 35 -90 3 -9 25 -63
52 -130 64 -155 208 -418 234 -428 5 -2 9 -9 9 -16 0 -19 118 -128 170 -158
114 -66 308 -94 422 -62 136 38 259 129 301 221 27 60 33 188 11 259 -19 63
-27 71 -53 45 -39 -39 -102 -64 -166 -65 -155 -3 -265 134 -416 517 -11 28
-28 69 -38 91 -10 23 -56 129 -101 236 -217 512 -265 614 -362 759 -138 205
-228 284 -429 376 -20 9 -46 17 -58 18 -26 2 -22 21 5 25 10 2 26 6 34 9 8 3
20 7 25 9 17 5 99 34 115 41 8 3 17 7 20 8 28 10 75 31 125 57 86 45 99 52
105 58 3 3 31 22 63 43 61 40 99 71 155 125 19 17 38 32 43 32 5 0 9 3 9 8 0
4 27 36 60 72 33 36 60 68 60 72 0 4 6 13 13 20 48 50 140 227 182 351 54 162
69 270 69 497 0 143 -2 177 -18 282 -18 112 -54 232 -102 333 -38 81 -94 175
-104 175 -5 0 -11 8 -14 18 -13 40 -155 171 -259 239 -118 77 -366 184 -482
208 -40 8 -60 13 -60 15 0 1 -7 3 -16 5 -10 1 -48 10 -85 18 -94 21 -217 40
-339 52 -22 2 -62 7 -90 10 -101 11 -599 27 -608 19z m463 -278 c25 -3 60 -8
78 -11 17 -3 49 -8 70 -11 39 -6 131 -26 192 -42 20 -5 45 -14 58 -21 12 -6
22 -10 22 -7 0 2 24 -6 53 -18 171 -72 287 -159 390 -294 40 -53 99 -154 102
-172 0 -3 3 -9 7 -15 8 -14 57 -170 63 -203 2 -15 9 -52 15 -82 24 -121 27
-372 5 -530 -21 -152 -88 -326 -182 -472 -38 -59 -141 -182 -168 -200 -5 -3
-26 -21 -45 -38 -109 -100 -342 -219 -480 -246 -13 -3 -56 -12 -95 -21 -57
-14 -135 -17 -420 -18 -192 -1 -359 1 -370 3 -20 3 -20 11 -19 1193 0 654 3
1192 6 1195 3 2 39 7 79 10 41 3 75 7 77 9 5 5 513 -3 562 -9z"/>
<path d="M4278 7855 c-2 -2 -25 -5 -53 -8 -55 -6 -70 -10 -132 -38 -24 -10
-45 -19 -49 -19 -3 0 -25 -16 -50 -36 -47 -39 -47 -50 -4 -97 22 -23 115 -203
123 -237 3 -14 29 -110 57 -215 29 -104 53 -199 55 -210 2 -11 4 -20 5 -20 1
0 3 -7 5 -15 10 -40 46 -175 70 -260 34 -124 39 -144 49 -187 2 -10 14 -54 26
-98 12 -44 30 -111 40 -150 10 -38 42 -158 70 -265 28 -107 53 -202 55 -210 2
-8 11 -42 20 -75 9 -33 21 -78 27 -100 5 -22 11 -47 13 -55 3 -8 22 -82 45
-165 22 -82 56 -210 76 -284 19 -74 37 -137 39 -141 2 -3 6 -17 8 -31 3 -13
15 -62 27 -109 12 -47 23 -89 24 -95 2 -5 8 -30 15 -55 7 -25 15 -52 17 -60 2
-8 17 -67 34 -130 17 -63 35 -131 40 -150 9 -37 46 -177 86 -325 14 -49 27
-97 28 -105 2 -8 9 -35 16 -60 7 -25 14 -54 17 -65 8 -38 11 -50 13 -50 1 0 3
-7 5 -15 2 -8 13 -51 25 -95 12 -44 32 -123 46 -175 14 -52 52 -196 85 -320
34 -124 63 -234 65 -245 11 -45 13 -50 14 -50 1 0 4 -13 6 -29 13 -77 59 -140
128 -174 72 -36 108 -43 261 -46 122 -3 241 20 346 67 l56 25 32 113 c18 63
44 155 57 204 14 50 28 97 31 105 3 8 7 22 9 30 2 8 26 94 55 190 28 96 53
182 55 190 9 41 56 207 61 220 3 8 7 20 9 25 26 88 37 127 45 160 5 22 12 47
16 55 3 8 7 20 9 25 1 6 12 44 24 85 11 41 23 85 26 97 2 12 9 35 15 50 10 27
14 38 24 84 5 23 42 149 56 189 10 30 29 103 28 110 0 3 5 19 11 35 7 17 13
37 15 45 2 8 15 56 30 105 14 50 28 97 30 106 2 8 17 63 35 122 18 59 33 115
35 125 2 9 4 18 5 20 2 1 3 5 4 10 7 27 30 104 42 142 7 25 49 171 93 325 44
154 96 336 117 405 20 69 37 130 38 135 2 6 9 30 16 55 7 25 14 50 16 55 1 6
15 57 32 115 l30 105 20 -70 c12 -38 28 -95 36 -125 8 -30 27 -95 41 -145 14
-49 28 -97 30 -105 4 -17 79 -280 100 -355 8 -27 26 -90 39 -140 38 -140 98
-348 104 -365 3 -8 6 -19 7 -25 4 -16 32 -115 50 -175 19 -64 18 -62 34 -120
6 -25 18 -67 26 -95 35 -118 78 -271 80 -285 2 -8 4 -15 5 -15 1 0 3 -7 5 -15
2 -8 20 -73 40 -145 21 -71 39 -137 40 -145 2 -8 4 -15 5 -15 1 0 3 -7 5 -15
2 -8 16 -55 30 -105 14 -49 28 -99 30 -110 3 -11 16 -56 29 -100 25 -83 153
-537 167 -590 4 -16 17 -61 28 -100 12 -38 23 -77 25 -85 3 -8 12 -42 21 -75
9 -33 18 -64 19 -70 1 -5 9 -30 16 -55 8 -25 14 -47 15 -50 31 -130 112 -202
256 -228 73 -14 252 -6 324 13 33 8 67 17 76 19 15 4 119 46 127 52 2 1 10 26
18 55 35 123 64 229 84 304 11 44 24 87 27 95 3 8 7 20 8 25 7 29 134 482 152
545 9 30 18 60 19 65 2 6 17 60 34 120 17 61 33 119 35 130 3 11 14 49 24 85
21 69 43 147 47 167 1 7 9 34 17 60 9 26 39 134 67 238 29 105 54 197 57 205
4 8 7 20 8 25 5 20 75 271 85 300 10 32 71 252 96 345 8 30 19 69 23 85 5 17
32 111 59 210 28 99 74 261 102 360 28 99 58 205 66 235 13 47 27 98 38 135
10 36 29 102 32 115 2 8 22 80 44 160 23 80 51 179 62 220 11 41 22 82 25 90
3 8 7 20 8 25 2 6 8 30 16 55 7 25 14 50 15 55 33 116 76 326 78 379 4 120
-33 189 -126 235 -64 30 -136 41 -253 35 -119 -5 -149 -9 -232 -34 l-41 -12
20 -45 c27 -60 28 -156 3 -273 -2 -8 -4 -15 -5 -15 -1 0 -3 -8 -5 -17 -2 -10
-15 -68 -30 -130 -15 -62 -29 -120 -30 -128 -2 -8 -13 -55 -25 -105 -12 -49
-23 -97 -25 -106 -2 -8 -10 -44 -19 -80 -64 -266 -85 -357 -90 -379 -3 -14 -9
-40 -15 -58 -5 -18 -10 -35 -10 -37 -1 -3 -1 -6 -2 -7 0 -2 -2 -12 -3 -23 -2
-11 -11 -49 -20 -85 -9 -36 -18 -74 -21 -85 -2 -11 -20 -87 -39 -170 -20 -82
-39 -161 -42 -175 -3 -14 -16 -70 -29 -125 -51 -212 -127 -531 -131 -555 -3
-14 -10 -43 -16 -65 -5 -22 -12 -48 -14 -58 -2 -10 -6 -27 -9 -37 -6 -19 -12
-46 -21 -90 -3 -14 -7 -33 -10 -42 -3 -9 -7 -25 -9 -35 -3 -15 -74 -314 -92
-388 -3 -11 -6 -29 -8 -40 -2 -11 -4 -22 -6 -25 -1 -3 -3 -9 -4 -15 -1 -5 -5
-21 -8 -35 -9 -36 -47 -192 -52 -215 -3 -11 -7 -29 -9 -40 -4 -17 -50 -210
-61 -255 -2 -8 -11 -44 -19 -80 -8 -36 -20 -83 -25 -105 -5 -22 -13 -55 -16
-74 -3 -19 -8 -37 -10 -41 -2 -3 -6 -17 -9 -31 -7 -38 -55 -240 -67 -284 -6
-22 -13 -49 -15 -60 -6 -39 -10 -54 -16 -60 -4 -5 -39 104 -51 160 -2 6 -6 16
-10 23 -5 6 -6 12 -3 12 3 0 -1 19 -10 41 -8 23 -16 51 -19 63 -12 56 -45 167
-55 186 -6 11 -9 20 -6 20 3 0 -2 21 -10 48 -8 26 -23 79 -33 117 -11 39 -36
126 -56 195 -20 69 -38 132 -40 140 -8 33 -67 236 -72 250 -3 8 -7 22 -9 30
-1 8 -12 47 -23 85 -11 39 -29 102 -40 140 -11 39 -36 126 -56 195 -20 69 -45
157 -56 195 -11 39 -22 77 -24 85 -2 8 -13 47 -24 85 -11 39 -34 120 -51 180
-18 61 -33 115 -34 120 -2 6 -8 30 -15 55 -8 25 -22 77 -33 115 -11 39 -27 91
-34 116 -8 25 -16 55 -18 66 -3 11 -19 67 -36 124 -17 57 -33 111 -35 119 -2
8 -22 80 -45 160 -52 184 -71 250 -75 273 -2 9 -6 21 -9 25 -3 5 -7 19 -10 33
-3 13 -12 47 -19 74 -8 28 -45 153 -81 280 -37 126 -68 240 -71 252 -5 31 -49
87 -82 104 -16 8 -31 18 -35 24 -4 5 -8 7 -8 3 0 -4 -17 -1 -39 7 -62 22 -207
18 -351 -10 -53 -10 -46 -8 -147 -47 l-52 -20 14 -35 c27 -63 35 -172 21 -260
-4 -24 -32 -132 -62 -240 -31 -109 -57 -205 -59 -213 -2 -8 -34 -118 -70 -245
-37 -126 -75 -259 -85 -295 -33 -118 -52 -185 -55 -200 -2 -8 -13 -46 -25 -85
-12 -38 -23 -78 -25 -87 -2 -9 -11 -41 -20 -70 -17 -58 -84 -294 -90 -318 -2
-8 -31 -112 -65 -230 -34 -118 -63 -222 -65 -230 -2 -8 -8 -28 -15 -45 -6 -16
-11 -31 -11 -32 1 -2 1 -4 0 -5 0 -2 -2 -10 -4 -18 -6 -29 -76 -278 -135 -480
-26 -89 -70 -242 -74 -260 -4 -16 -25 -90 -56 -200 -10 -36 -34 -120 -54 -188
-35 -120 -39 -135 -52 -197 -4 -16 -10 -34 -14 -40 -5 -5 -12 -28 -16 -50 -10
-51 -11 -54 -14 -60 -3 -6 -7 -22 -9 -35 0 -5 -5 -10 -10 -10 -9 0 -20 33 -28
85 -2 17 -8 44 -14 61 -5 17 -11 40 -13 50 -2 11 -9 37 -15 59 -6 22 -12 49
-14 60 -2 11 -7 27 -10 35 -4 13 -44 177 -52 220 -2 8 -4 15 -5 15 -2 0 -4 12
-13 55 -3 14 -8 32 -11 40 -3 8 -8 26 -10 40 -3 14 -19 81 -37 150 -17 69 -37
152 -45 185 -8 33 -16 67 -18 75 -2 8 -11 44 -20 80 -9 36 -20 81 -26 100 -11
42 -48 196 -55 228 -7 29 -9 39 -40 162 -32 124 -63 255 -71 290 -3 14 -17 68
-31 120 -14 52 -27 106 -29 120 -3 14 -8 34 -11 45 -4 11 -8 25 -9 30 -1 6 -5
21 -7 35 -3 14 -20 81 -37 150 -17 69 -33 132 -35 140 -2 8 -29 118 -60 245
-31 126 -58 236 -60 245 -2 8 -11 44 -20 80 -9 36 -18 72 -20 80 -2 8 -24 98
-50 200 -25 102 -57 232 -71 290 -13 58 -29 122 -34 143 -6 20 -14 54 -20 75
-5 20 -12 47 -15 59 -3 12 -8 30 -10 40 -2 10 -11 47 -20 83 -9 36 -18 74 -20
86 -3 11 -16 65 -30 120 -15 54 -28 110 -31 124 -12 64 -62 138 -118 176 -37
25 -114 53 -166 60 -48 6 -129 12 -132 9z"/>
</g>
</svg>
